<svg id="visual" viewBox="0 0 1920 1080" width="1920" height="1080" xmlns="http://www.w3.org/2000/svg" xmlns:xlink="http://www.w3.org/1999/xlink" version="1.1"><rect x="0" y="0" width="1920" height="1080" fill="#e2eef1"></rect><path d="M0 791L40 776.3C80 761.7 160 732.3 240 720.2C320 708 400 713 480 702.3C560 691.7 640 665.3 720 671.5C800 677.7 880 716.3 960 730.2C1040 744 1120 733 1200 725.3C1280 717.7 1360 713.3 1440 720.5C1520 727.7 1600 746.3 1680 739.5C1760 732.7 1840 700.3 1880 684.2L1920 668L1920 1081L1880 1081C1840 1081 1760 1081 1680 1081C1600 1081 1520 1081 1440 1081C1360 1081 1280 1081 1200 1081C1120 1081 1040 1081 960 1081C880 1081 800 1081 720 1081C640 1081 560 1081 480 1081C400 1081 320 1081 240 1081C160 1081 80 1081 40 1081L0 1081Z" fill="#46accc"></path><path d="M0 841L40 817.2C80 793.3 160 745.7 240 736.5C320 727.3 400 756.7 480 761.2C560 765.7 640 745.3 720 732.2C800 719 880 713 960 715.7C1040 718.3 1120 729.7 1200 739.3C1280 749 1360 757 1440 750.7C1520 744.3 1600 723.7 1680 734C1760 744.3 1840 785.7 1880 806.3L1920 827L1920 1081L1880 1081C1840 1081 1760 1081 1680 1081C1600 1081 1520 1081 1440 1081C1360 1081 1280 1081 1200 1081C1120 1081 1040 1081 960 1081C880 1081 800 1081 720 1081C640 1081 560 1081 480 1081C400 1081 320 1081 240 1081C160 1081 80 1081 40 1081L0 1081Z" fill="#4a8dad"></path><path d="M0 880L40 877.8C80 875.7 160 871.3 240 861.8C320 852.3 400 837.7 480 825C560 812.3 640 801.7 720 798C800 794.3 880 797.7 960 797.8C1040 798 1120 795 1200 803.7C1280 812.3 1360 832.7 1440 845.3C1520 858 1600 863 1680 868.3C1760 873.7 1840 879.3 1880 882.2L1920 885L1920 1081L1880 1081C1840 1081 1760 1081 1680 1081C1600 1081 1520 1081 1440 1081C1360 1081 1280 1081 1200 1081C1120 1081 1040 1081 960 1081C880 1081 800 1081 720 1081C640 1081 560 1081 480 1081C400 1081 320 1081 240 1081C160 1081 80 1081 40 1081L0 1081Z" fill="#48708c"></path><path d="M0 934L40 918.5C80 903 160 872 240 873C320 874 400 907 480 908.2C560 909.3 640 878.7 720 873.2C800 867.7 880 887.3 960 894C1040 900.7 1120 894.3 1200 890.7C1280 887 1360 886 1440 890.3C1520 894.7 1600 904.3 1680 908.7C1760 913 1840 912 1880 911.5L1920 911L1920 1081L1880 1081C1840 1081 1760 1081 1680 1081C1600 1081 1520 1081 1440 1081C1360 1081 1280 1081 1200 1081C1120 1081 1040 1081 960 1081C880 1081 800 1081 720 1081C640 1081 560 1081 480 1081C400 1081 320 1081 240 1081C160 1081 80 1081 40 1081L0 1081Z" fill="#41556a"></path><path d="M0 984L40 980C80 976 160 968 240 960.2C320 952.3 400 944.7 480 949.3C560 954 640 971 720 976.2C800 981.3 880 974.7 960 965.2C1040 955.7 1120 943.3 1200 934.3C1280 925.3 1360 919.7 1440 913.8C1520 908 1600 902 1680 911.2C1760 920.3 1840 944.7 1880 956.8L1920 969L1920 1081L1880 1081C1840 1081 1760 1081 1680 1081C1600 1081 1520 1081 1440 1081C1360 1081 1280 1081 1200 1081C1120 1081 1040 1081 960 1081C880 1081 800 1081 720 1081C640 1081 560 1081 480 1081C400 1081 320 1081 240 1081C160 1081 80 1081 40 1081L0 1081Z" fill="#343c49"></path><path d="M0 1006L40 999.2C80 992.3 160 978.7 240 976.8C320 975 400 985 480 986.5C560 988 640 981 720 980.8C800 980.7 880 987.3 960 991.7C1040 996 1120 998 1200 994.5C1280 991 1360 982 1440 987.5C1520 993 1600 1013 1680 1022.2C1760 1031.3 1840 1029.7 1880 1028.8L1920 1028L1920 1081L1880 1081C1840 1081 1760 1081 1680 1081C1600 1081 1520 1081 1440 1081C1360 1081 1280 1081 1200 1081C1120 1081 1040 1081 960 1081C880 1081 800 1081 720 1081C640 1081 560 1081 480 1081C400 1081 320 1081 240 1081C160 1081 80 1081 40 1081L0 1081Z" fill="#24252a"></path></svg>