<?xml version="1.0" encoding="UTF-8"?>
<!DOCTYPE svg PUBLIC "-//W3C//DTD SVG 1.1//EN" "http://www.w3.org/Graphics/SVG/1.1/DTD/svg11.dtd">
<svg xmlns="http://www.w3.org/2000/svg" version="1.1" width="512px" height="58px" style="shape-rendering:geometricPrecision; text-rendering:geometricPrecision; image-rendering:optimizeQuality; fill-rule:evenodd; clip-rule:evenodd" xmlns:xlink="http://www.w3.org/1999/xlink">
<g><path style="opacity:0.009" fill="#fefffe" d="M 360.5,-0.5 C 361.5,-0.5 362.5,-0.5 363.5,-0.5C 362.5,0.833333 361.5,0.833333 360.5,-0.5 Z"/></g>
<g><path style="opacity:1" fill="#247346" d="M 372.5,10.5 C 370.786,9.26162 368.786,8.59495 366.5,8.5C 364.565,7.19004 362.565,5.8567 360.5,4.5C 363.637,4.59135 366.804,4.59135 370,4.5C 372.777,7.10835 375.943,9.10835 379.5,10.5C 377.229,11.3635 374.895,11.3635 372.5,10.5 Z"/></g>
<g><path style="opacity:0.363" fill="#eef5f2" d="M 361.5,40.5 C 360.25,40.4226 359.417,39.756 359,38.5C 359.1,29.6412 358.266,20.9745 356.5,12.5C 361.985,11.8332 367.319,11.1665 372.5,10.5C 374.895,11.3635 377.229,11.3635 379.5,10.5C 375.943,9.10835 372.777,7.10835 370,4.5C 366.804,4.59135 363.637,4.59135 360.5,4.5C 362.565,5.8567 364.565,7.19004 366.5,8.5C 363.646,8.07608 360.979,7.07608 358.5,5.5C 357.269,4.34934 357.269,3.18268 358.5,2C 363.081,2.64457 367.748,3.31124 372.5,4C 376.382,6.43406 380.048,9.10073 383.5,12C 382.975,12.6924 382.308,13.1924 381.5,13.5C 380.669,21.1451 380.169,28.8117 380,36.5C 379.654,38.8477 378.487,40.6811 376.5,42C 373.905,42.2256 371.405,42.7256 369,43.5C 366.244,42.9298 363.744,41.9298 361.5,40.5 Z"/></g>
<g><path style="opacity:0.308" fill="#f2f7f4" d="M 366.5,8.5 C 368.786,8.59495 370.786,9.26162 372.5,10.5C 370.102,10.7406 368.102,10.0739 366.5,8.5 Z"/></g>
<g><path style="opacity:0.934" fill="#fefffe" d="M 305.5,11.5 C 316.187,11.168 326.854,11.5013 337.5,12.5C 337.718,19.9329 337.218,27.5995 336,35.5C 330.579,40.5991 324.079,42.9325 316.5,42.5C 316.5,44.8333 316.5,47.1667 316.5,49.5C 312.833,49.5 309.167,49.5 305.5,49.5C 305.5,36.8333 305.5,24.1667 305.5,11.5 Z"/></g>
<g><path style="opacity:0.811" fill="#fefffe" d="M 343.5,11.5 C 346.247,11.1866 348.914,11.52 351.5,12.5C 350.364,20.7845 350.197,29.1178 351,37.5C 351.967,43.1348 355.133,46.9682 360.5,49C 349.5,49.6667 338.5,49.6667 327.5,49C 341.282,45.6354 347.282,36.8021 345.5,22.5C 344.831,18.8146 344.165,15.1479 343.5,11.5 Z"/></g>
<g><path style="opacity:0.791" fill="#fefffe" d="M 387.5,11.5 C 390.247,11.1866 392.914,11.52 395.5,12.5C 394.483,24.9037 393.817,37.2371 393.5,49.5C 388.489,49.6659 383.489,49.4993 378.5,49C 382.251,47.5849 385.084,45.0849 387,41.5C 388.747,31.5058 388.913,21.5058 387.5,11.5 Z"/></g>
<g><path style="opacity:0.846" fill="#fefffe" d="M 399.5,11.5 C 408.192,11.1686 416.859,11.502 425.5,12.5C 424.535,19.776 424.201,27.1093 424.5,34.5C 423.448,34.6495 422.448,34.4828 421.5,34C 413.888,26.5573 406.555,19.0573 399.5,11.5 Z"/></g>
<g><path style="opacity:0.763" fill="#fefffe" d="M 431.5,11.5 C 434.247,11.1866 436.914,11.52 439.5,12.5C 438.52,24.783 438.187,37.1164 438.5,49.5C 436.5,49.5 434.5,49.5 432.5,49.5C 432.795,36.7836 432.462,24.117 431.5,11.5 Z"/></g>
<g><path style="opacity:0.772" fill="#fefffe" d="M 445.5,11.5 C 451.868,11.1703 458.202,11.5037 464.5,12.5C 458.833,17.5 453.167,22.5 447.5,27.5C 446.738,22.1525 446.072,16.8192 445.5,11.5 Z"/></g>
<g><path style="opacity:0.952" fill="#fefffe" d="M 475.5,11.5 C 482.167,11.5 488.833,11.5 495.5,11.5C 495.5,24.1667 495.5,36.8333 495.5,49.5C 489.158,49.6662 482.825,49.4995 476.5,49C 470.301,43.1356 464.468,36.9689 459,30.5C 458.333,29.5 458.333,28.5 459,27.5C 465.078,22.5865 470.578,17.2531 475.5,11.5 Z"/></g>
<g><path style="opacity:0.866" fill="#fefffe" d="M 5.5,12.5 C 14.6626,11.9069 23.6626,12.7402 32.5,15C 43.5564,22.0318 44.2231,30.0318 34.5,39C 37.3599,39.7421 40.3599,40.2421 43.5,40.5C 44.7036,48.1127 41.3703,50.9461 33.5,49C 29.5,46.6667 25.5,44.3333 21.5,42C 19.1902,41.5034 16.8568,41.3367 14.5,41.5C 15.8396,49.2342 12.8396,51.5675 5.5,48.5C 4.18923,36.4381 4.18923,24.4381 5.5,12.5 Z M 20.5,21.5 C 23.5534,21.9107 26.5534,22.5774 29.5,23.5C 32.4371,26.8652 31.7704,29.3652 27.5,31C 23.1794,31.499 18.8461,31.6657 14.5,31.5C 14.7683,28.8806 14.435,26.3806 13.5,24C 15.8329,22.957 18.1663,22.1237 20.5,21.5 Z"/></g>
<g><path style="opacity:0.85" fill="#fefffe" d="M 48.5,12.5 C 58.8857,12.1907 69.219,12.524 79.5,13.5C 80.7825,16.3719 80.7825,19.2053 79.5,22C 72.1742,22.4997 64.8409,22.6663 57.5,22.5C 57.33,23.8221 57.6634,24.9887 58.5,26C 63.1548,26.4992 67.8215,26.6658 72.5,26.5C 73.205,29.2443 73.205,31.911 72.5,34.5C 67.5649,35.4476 62.5649,35.781 57.5,35.5C 57.5,36.8333 57.5,38.1667 57.5,39.5C 64.7419,39.894 72.0752,39.894 79.5,39.5C 80.0126,42.4485 80.0126,45.2819 79.5,48C 77.3018,48.3729 75.1351,48.8729 73,49.5C 66.7856,48.3684 60.7856,48.3684 55,49.5C 52.8649,48.8729 50.6982,48.3729 48.5,48C 47.5081,36.0731 47.5081,24.2397 48.5,12.5 Z"/></g>
<g><path style="opacity:0.856" fill="#fefffe" d="M 83.5,12.5 C 90.8409,12.3337 98.1742,12.5003 105.5,13C 119.827,16.9918 122.827,24.9918 114.5,37C 107.487,40.5543 100.154,42.0543 92.5,41.5C 93.4527,48.8601 90.4527,51.1934 83.5,48.5C 82.5342,36.5432 82.5342,24.5432 83.5,12.5 Z M 92.5,22.5 C 97.9302,22.161 103.264,22.661 108.5,24C 110.223,27.4079 109.223,29.7413 105.5,31C 101.179,31.499 96.8461,31.6657 92.5,31.5C 92.5,28.5 92.5,25.5 92.5,22.5 Z"/></g>
<g><path style="opacity:0.865" fill="#fefffe" d="M 122.5,12.5 C 125.5,12.5 128.5,12.5 131.5,12.5C 131.457,20.8071 131.957,29.1404 133,37.5C 138.603,40.4675 143.937,40.1342 149,36.5C 149.819,28.8467 150.486,21.1801 151,13.5C 154,12.1667 157,12.1667 160,13.5C 160.667,21.1667 160.667,28.8333 160,36.5C 156.934,45.5392 150.6,49.5392 141,48.5C 129.506,49.1673 123.006,43.834 121.5,32.5C 122.191,25.9404 122.524,19.2737 122.5,12.5 Z"/></g>
<g><path style="opacity:0.886" fill="#fefffe" d="M 164.5,12.5 C 172.84,12.3336 181.173,12.5003 189.5,13C 194.751,14.0304 198.585,16.8638 201,21.5C 201.711,23.8991 201.544,26.2324 200.5,28.5C 201.815,30.3159 203.315,31.9825 205,33.5C 207.329,40.8365 204.829,45.6698 197.5,48C 194.812,48.3924 192.145,48.8924 189.5,49.5C 181.035,48.8277 172.702,48.4943 164.5,48.5C 162.009,36.4293 162.009,24.4293 164.5,12.5 Z M 172.5,22.5 C 178.176,22.3339 183.843,22.5006 189.5,23C 189.957,23.414 190.291,23.914 190.5,24.5C 185.313,26.2939 180.146,26.9605 175,26.5C 172.98,25.9681 172.147,24.6348 172.5,22.5 Z M 173.5,35.5 C 179.509,35.3338 185.509,35.5005 191.5,36C 196.833,37 196.833,38 191.5,39C 185.5,39.6667 179.5,39.6667 173.5,39C 172.829,38.0138 172.829,36.8471 173.5,35.5 Z"/></g>
<g><path style="opacity:0.83" fill="#fefffe" d="M 210.5,12.5 C 213.448,12.2229 216.281,12.5562 219,13.5C 219.5,22.1603 219.666,30.8269 219.5,39.5C 225.425,39.1918 231.259,39.5251 237,40.5C 237.769,43.0991 237.602,45.5991 236.5,48C 228.633,49.1052 220.799,49.6052 213,49.5C 211.289,49.5607 209.956,48.8941 209,47.5C 209.149,40.9278 208.982,34.4278 208.5,28C 208.566,22.7094 209.233,17.5427 210.5,12.5 Z"/></g>
<g><path style="opacity:0.839" fill="#fefffe" d="M 240.5,12.5 C 243.5,12.5 246.5,12.5 249.5,12.5C 249.6,23.5054 249.933,34.1721 250.5,44.5C 251.167,48.5 249.5,50.1667 245.5,49.5C 243.772,49.4099 242.106,49.0766 240.5,48.5C 240.439,36.3188 240.439,24.3188 240.5,12.5 Z"/></g>
<g><path style="opacity:0.857" fill="#fefffe" d="M 254.5,12.5 C 257.998,11.9547 260.998,12.788 263.5,15C 262.635,18.2918 262.468,21.7918 263,25.5C 267.833,21.3333 272.667,17.1667 277.5,13C 281.871,12.1725 286.205,12.3391 290.5,13.5C 285.015,18.485 279.681,23.6516 274.5,29C 280,34.5 285.5,40 291,45.5C 291.781,46.9437 291.614,48.277 290.5,49.5C 286.902,49.9065 283.235,49.4065 279.5,48C 275.318,43.6513 270.985,39.4846 266.5,35.5C 265.522,35.9767 264.689,36.6433 264,37.5C 263.895,41.37 263.062,45.0366 261.5,48.5C 258.386,50.0623 255.553,49.7289 253,47.5C 253.618,38.1813 253.451,28.848 252.5,19.5C 253.17,17.1369 253.837,14.8036 254.5,12.5 Z"/></g>
<g><path style="opacity:1" fill="#1f7142" d="M 361.5,40.5 C 361.013,39.5266 360.513,38.5266 360,37.5C 359.5,29.1733 359.334,20.84 359.5,12.5C 366.167,12.5 372.833,12.5 379.5,12.5C 379.91,21.2498 379.41,29.9164 378,38.5C 377.167,39.3333 376.333,40.1667 375.5,41C 370.806,41.5639 366.14,41.3973 361.5,40.5 Z"/></g>
<g><path style="opacity:0.269" fill="#fefefe" d="M 368.5,16.5 C 370.459,22.7496 371.126,29.4163 370.5,36.5C 368.541,30.2504 367.874,23.5837 368.5,16.5 Z"/></g>
<g><path style="opacity:0.973" fill="#9ac3b0" d="M 362.5,16.5 C 361.874,23.5837 362.541,30.2504 364.5,36.5C 363.791,37.404 362.791,37.7373 361.5,37.5C 361.175,30.3134 361.509,23.3134 362.5,16.5 Z"/></g>
<g><path style="opacity:0.253" fill="#fefefe" d="M 362.5,16.5 C 364.459,22.7496 365.126,29.4163 364.5,36.5C 362.541,30.2504 361.874,23.5837 362.5,16.5 Z"/></g>
<g><path style="opacity:1" fill="#82b59c" d="M 368.5,16.5 C 369.209,15.596 370.209,15.2627 371.5,15.5C 371.825,22.6866 371.491,29.6866 370.5,36.5C 371.126,29.4163 370.459,22.7496 368.5,16.5 Z"/></g>
<g><path style="opacity:0.241" fill="#fefefe" d="M 376.5,16.5 C 376.5,16.8333 376.5,17.1667 376.5,17.5C 375.167,17.8333 375.167,18.1667 376.5,18.5C 376.5,23.8333 376.5,29.1667 376.5,34.5C 375.167,34.8333 375.167,35.1667 376.5,35.5C 376.158,36.3382 375.492,36.6716 374.5,36.5C 373.874,29.4163 374.541,22.7496 376.5,16.5 Z"/></g>
<g><path style="opacity:0.937" fill="#a4c9b7" d="M 376.5,16.5 C 377.491,23.3134 377.825,30.3134 377.5,37.5C 376.209,37.7373 375.209,37.404 374.5,36.5C 375.492,36.6716 376.158,36.3382 376.5,35.5C 376.5,35.1667 376.5,34.8333 376.5,34.5C 376.5,29.1667 376.5,23.8333 376.5,18.5C 376.5,18.1667 376.5,17.8333 376.5,17.5C 376.5,17.1667 376.5,16.8333 376.5,16.5 Z"/></g>
<g><path style="opacity:0.882" fill="#fefffe" d="M 402.5,27.5 C 410.609,34.437 418.609,41.6036 426.5,49C 418.147,49.8317 409.813,49.6651 401.5,48.5C 401.964,41.5096 402.298,34.5096 402.5,27.5 Z"/></g>
<g><path style="opacity:0.871" fill="#fefffe" d="M 450.5,35.5 C 451.552,35.3505 452.552,35.5172 453.5,36C 457.5,40.3333 461.5,44.6667 465.5,49C 458.833,49.6667 452.167,49.6667 445.5,49C 446.288,45.9243 446.788,42.7577 447,39.5C 447.69,37.6498 448.856,36.3164 450.5,35.5 Z"/></g>
</svg>
