<svg id="visual" viewBox="0 0 1920 1080" width="1920" height="1080" xmlns="http://www.w3.org/2000/svg" xmlns:xlink="http://www.w3.org/1999/xlink" version="1.1"><rect x="0" y="0" width="1920" height="1080" fill="#e2eef1"></rect><path d="M0 639L45.7 665.5C91.3 692 182.7 745 274.2 769.5C365.7 794 457.3 790 548.8 784.5C640.3 779 731.7 772 823 760.5C914.3 749 1005.7 733 1097 713.8C1188.3 694.7 1279.7 672.3 1371.2 670.5C1462.7 668.7 1554.3 687.3 1645.8 693.8C1737.3 700.3 1828.7 694.7 1874.3 691.8L1920 689L1920 1081L1874.3 1081C1828.7 1081 1737.3 1081 1645.8 1081C1554.3 1081 1462.7 1081 1371.2 1081C1279.7 1081 1188.3 1081 1097 1081C1005.7 1081 914.3 1081 823 1081C731.7 1081 640.3 1081 548.8 1081C457.3 1081 365.7 1081 274.2 1081C182.7 1081 91.3 1081 45.7 1081L0 1081Z" fill="#46accc"></path><path d="M0 748L45.7 751.5C91.3 755 182.7 762 274.2 755C365.7 748 457.3 727 548.8 729.5C640.3 732 731.7 758 823 763.7C914.3 769.3 1005.7 754.7 1097 741.5C1188.3 728.3 1279.7 716.7 1371.2 731.8C1462.7 747 1554.3 789 1645.8 800.7C1737.3 812.3 1828.7 793.7 1874.3 784.3L1920 775L1920 1081L1874.3 1081C1828.7 1081 1737.3 1081 1645.8 1081C1554.3 1081 1462.7 1081 1371.2 1081C1279.7 1081 1188.3 1081 1097 1081C1005.7 1081 914.3 1081 823 1081C731.7 1081 640.3 1081 548.8 1081C457.3 1081 365.7 1081 274.2 1081C182.7 1081 91.3 1081 45.7 1081L0 1081Z" fill="#4a8dad"></path><path d="M0 822L45.7 817.3C91.3 812.7 182.7 803.3 274.2 815.3C365.7 827.3 457.3 860.7 548.8 870C640.3 879.3 731.7 864.7 823 851.8C914.3 839 1005.7 828 1097 816.2C1188.3 804.3 1279.7 791.7 1371.2 793.5C1462.7 795.3 1554.3 811.7 1645.8 818.7C1737.3 825.7 1828.7 823.3 1874.3 822.2L1920 821L1920 1081L1874.3 1081C1828.7 1081 1737.3 1081 1645.8 1081C1554.3 1081 1462.7 1081 1371.2 1081C1279.7 1081 1188.3 1081 1097 1081C1005.7 1081 914.3 1081 823 1081C731.7 1081 640.3 1081 548.8 1081C457.3 1081 365.7 1081 274.2 1081C182.7 1081 91.3 1081 45.7 1081L0 1081Z" fill="#48708c"></path><path d="M0 891L45.7 891.3C91.3 891.7 182.7 892.3 274.2 884.7C365.7 877 457.3 861 548.8 863.3C640.3 865.7 731.7 886.3 823 900C914.3 913.7 1005.7 920.3 1097 907.8C1188.3 895.3 1279.7 863.7 1371.2 848.5C1462.7 833.3 1554.3 834.7 1645.8 843C1737.3 851.3 1828.7 866.7 1874.3 874.3L1920 882L1920 1081L1874.3 1081C1828.7 1081 1737.3 1081 1645.8 1081C1554.3 1081 1462.7 1081 1371.2 1081C1279.7 1081 1188.3 1081 1097 1081C1005.7 1081 914.3 1081 823 1081C731.7 1081 640.3 1081 548.8 1081C457.3 1081 365.7 1081 274.2 1081C182.7 1081 91.3 1081 45.7 1081L0 1081Z" fill="#41556a"></path><path d="M0 970L45.7 971.5C91.3 973 182.7 976 274.2 972.5C365.7 969 457.3 959 548.8 949.7C640.3 940.3 731.7 931.7 823 928.2C914.3 924.7 1005.7 926.3 1097 930.7C1188.3 935 1279.7 942 1371.2 937C1462.7 932 1554.3 915 1645.8 916.8C1737.3 918.7 1828.7 939.3 1874.3 949.7L1920 960L1920 1081L1874.3 1081C1828.7 1081 1737.3 1081 1645.8 1081C1554.3 1081 1462.7 1081 1371.2 1081C1279.7 1081 1188.3 1081 1097 1081C1005.7 1081 914.3 1081 823 1081C731.7 1081 640.3 1081 548.8 1081C457.3 1081 365.7 1081 274.2 1081C182.7 1081 91.3 1081 45.7 1081L0 1081Z" fill="#343c49"></path><path d="M0 1034L45.7 1027.3C91.3 1020.7 182.7 1007.3 274.2 996C365.7 984.7 457.3 975.3 548.8 973.2C640.3 971 731.7 976 823 979.3C914.3 982.7 1005.7 984.3 1097 983.8C1188.3 983.3 1279.7 980.7 1371.2 983.7C1462.7 986.7 1554.3 995.3 1645.8 993C1737.3 990.7 1828.7 977.3 1874.3 970.7L1920 964L1920 1081L1874.3 1081C1828.7 1081 1737.3 1081 1645.8 1081C1554.3 1081 1462.7 1081 1371.2 1081C1279.7 1081 1188.3 1081 1097 1081C1005.7 1081 914.3 1081 823 1081C731.7 1081 640.3 1081 548.8 1081C457.3 1081 365.7 1081 274.2 1081C182.7 1081 91.3 1081 45.7 1081L0 1081Z" fill="#24252a"></path></svg>