<svg id="visual" viewBox="0 0 1920 1080" width="1920" height="1080" xmlns="http://www.w3.org/2000/svg" xmlns:xlink="http://www.w3.org/1999/xlink" version="1.1"><rect x="0" y="0" width="1920" height="1080" fill="#e2eef1"></rect><path d="M0 636L24.7 657.3C49.3 678.7 98.7 721.3 147.8 743.5C197 765.7 246 767.3 295.2 757C344.3 746.7 393.7 724.3 443 707.3C492.3 690.3 541.7 678.7 590.8 680.5C640 682.3 689 697.7 738.2 708.2C787.3 718.7 836.7 724.3 886 722C935.3 719.7 984.7 709.3 1034 703C1083.3 696.7 1132.7 694.3 1181.8 690.5C1231 686.7 1280 681.3 1329.2 693.5C1378.3 705.7 1427.7 735.3 1477 733.7C1526.3 732 1575.7 699 1624.8 701.8C1674 704.7 1723 743.3 1772.2 760.5C1821.3 777.7 1870.7 773.3 1895.3 771.2L1920 769L1920 1081L1895.3 1081C1870.7 1081 1821.3 1081 1772.2 1081C1723 1081 1674 1081 1624.8 1081C1575.7 1081 1526.3 1081 1477 1081C1427.7 1081 1378.3 1081 1329.2 1081C1280 1081 1231 1081 1181.8 1081C1132.7 1081 1083.3 1081 1034 1081C984.7 1081 935.3 1081 886 1081C836.7 1081 787.3 1081 738.2 1081C689 1081 640 1081 590.8 1081C541.7 1081 492.3 1081 443 1081C393.7 1081 344.3 1081 295.2 1081C246 1081 197 1081 147.8 1081C98.7 1081 49.3 1081 24.7 1081L0 1081Z" fill="#46accc"></path><path d="M0 753L24.7 749.2C49.3 745.3 98.7 737.7 147.8 734.2C197 730.7 246 731.3 295.2 742.5C344.3 753.7 393.7 775.3 443 775.7C492.3 776 541.7 755 590.8 749C640 743 689 752 738.2 763.3C787.3 774.7 836.7 788.3 886 787.8C935.3 787.3 984.7 772.7 1034 776.2C1083.3 779.7 1132.7 801.3 1181.8 790.8C1231 780.3 1280 737.7 1329.2 719.7C1378.3 701.7 1427.7 708.3 1477 712.7C1526.3 717 1575.7 719 1624.8 717C1674 715 1723 709 1772.2 714.5C1821.3 720 1870.7 737 1895.3 745.5L1920 754L1920 1081L1895.3 1081C1870.7 1081 1821.3 1081 1772.2 1081C1723 1081 1674 1081 1624.8 1081C1575.7 1081 1526.3 1081 1477 1081C1427.7 1081 1378.3 1081 1329.2 1081C1280 1081 1231 1081 1181.8 1081C1132.7 1081 1083.3 1081 1034 1081C984.7 1081 935.3 1081 886 1081C836.7 1081 787.3 1081 738.2 1081C689 1081 640 1081 590.8 1081C541.7 1081 492.3 1081 443 1081C393.7 1081 344.3 1081 295.2 1081C246 1081 197 1081 147.8 1081C98.7 1081 49.3 1081 24.7 1081L0 1081Z" fill="#4996b6"></path><path d="M0 755L24.7 771C49.3 787 98.7 819 147.8 831C197 843 246 835 295.2 832.8C344.3 830.7 393.7 834.3 443 836.7C492.3 839 541.7 840 590.8 829.8C640 819.7 689 798.3 738.2 781.7C787.3 765 836.7 753 886 760.7C935.3 768.3 984.7 795.7 1034 794.2C1083.3 792.7 1132.7 762.3 1181.8 755.3C1231 748.3 1280 764.7 1329.2 777.3C1378.3 790 1427.7 799 1477 805.5C1526.3 812 1575.7 816 1624.8 809.2C1674 802.3 1723 784.7 1772.2 788.3C1821.3 792 1870.7 817 1895.3 829.5L1920 842L1920 1081L1895.3 1081C1870.7 1081 1821.3 1081 1772.2 1081C1723 1081 1674 1081 1624.8 1081C1575.7 1081 1526.3 1081 1477 1081C1427.7 1081 1378.3 1081 1329.2 1081C1280 1081 1231 1081 1181.8 1081C1132.7 1081 1083.3 1081 1034 1081C984.7 1081 935.3 1081 886 1081C836.7 1081 787.3 1081 738.2 1081C689 1081 640 1081 590.8 1081C541.7 1081 492.3 1081 443 1081C393.7 1081 344.3 1081 295.2 1081C246 1081 197 1081 147.8 1081C98.7 1081 49.3 1081 24.7 1081L0 1081Z" fill="#4a809f"></path><path d="M0 876L24.7 860.5C49.3 845 98.7 814 147.8 815.3C197 816.7 246 850.3 295.2 866.7C344.3 883 393.7 882 443 876.5C492.3 871 541.7 861 590.8 847.7C640 834.3 689 817.7 738.2 824C787.3 830.3 836.7 859.7 886 866.3C935.3 873 984.7 857 1034 848.3C1083.3 839.7 1132.7 838.3 1181.8 836.5C1231 834.7 1280 832.3 1329.2 824.7C1378.3 817 1427.7 804 1477 805.7C1526.3 807.3 1575.7 823.7 1624.8 830.2C1674 836.7 1723 833.3 1772.2 824.3C1821.3 815.3 1870.7 800.7 1895.3 793.3L1920 786L1920 1081L1895.3 1081C1870.7 1081 1821.3 1081 1772.2 1081C1723 1081 1674 1081 1624.8 1081C1575.7 1081 1526.3 1081 1477 1081C1427.7 1081 1378.3 1081 1329.2 1081C1280 1081 1231 1081 1181.8 1081C1132.7 1081 1083.3 1081 1034 1081C984.7 1081 935.3 1081 886 1081C836.7 1081 787.3 1081 738.2 1081C689 1081 640 1081 590.8 1081C541.7 1081 492.3 1081 443 1081C393.7 1081 344.3 1081 295.2 1081C246 1081 197 1081 147.8 1081C98.7 1081 49.3 1081 24.7 1081L0 1081Z" fill="#476c87"></path><path d="M0 916L24.7 919.2C49.3 922.3 98.7 928.7 147.8 917.5C197 906.3 246 877.7 295.2 877.5C344.3 877.3 393.7 905.7 443 915.8C492.3 926 541.7 918 590.8 910.8C640 903.7 689 897.3 738.2 890.2C787.3 883 836.7 875 886 880.8C935.3 886.7 984.7 906.3 1034 900.7C1083.3 895 1132.7 864 1181.8 864.2C1231 864.3 1280 895.7 1329.2 896.5C1378.3 897.3 1427.7 867.7 1477 855C1526.3 842.3 1575.7 846.7 1624.8 860.3C1674 874 1723 897 1772.2 910.3C1821.3 923.7 1870.7 927.3 1895.3 929.2L1920 931L1920 1081L1895.3 1081C1870.7 1081 1821.3 1081 1772.2 1081C1723 1081 1674 1081 1624.8 1081C1575.7 1081 1526.3 1081 1477 1081C1427.7 1081 1378.3 1081 1329.2 1081C1280 1081 1231 1081 1181.8 1081C1132.7 1081 1083.3 1081 1034 1081C984.7 1081 935.3 1081 886 1081C836.7 1081 787.3 1081 738.2 1081C689 1081 640 1081 590.8 1081C541.7 1081 492.3 1081 443 1081C393.7 1081 344.3 1081 295.2 1081C246 1081 197 1081 147.8 1081C98.7 1081 49.3 1081 24.7 1081L0 1081Z" fill="#42586f"></path><path d="M0 939L24.7 940.3C49.3 941.7 98.7 944.3 147.8 946.5C197 948.7 246 950.3 295.2 954.8C344.3 959.3 393.7 966.7 443 962.8C492.3 959 541.7 944 590.8 932.7C640 921.3 689 913.7 738.2 913C787.3 912.3 836.7 918.7 886 929.8C935.3 941 984.7 957 1034 961C1083.3 965 1132.7 957 1181.8 951.8C1231 946.7 1280 944.3 1329.2 941.5C1378.3 938.7 1427.7 935.3 1477 932C1526.3 928.7 1575.7 925.3 1624.8 917.7C1674 910 1723 898 1772.2 893.3C1821.3 888.7 1870.7 891.3 1895.3 892.7L1920 894L1920 1081L1895.3 1081C1870.7 1081 1821.3 1081 1772.2 1081C1723 1081 1674 1081 1624.8 1081C1575.7 1081 1526.3 1081 1477 1081C1427.7 1081 1378.3 1081 1329.2 1081C1280 1081 1231 1081 1181.8 1081C1132.7 1081 1083.3 1081 1034 1081C984.7 1081 935.3 1081 886 1081C836.7 1081 787.3 1081 738.2 1081C689 1081 640 1081 590.8 1081C541.7 1081 492.3 1081 443 1081C393.7 1081 344.3 1081 295.2 1081C246 1081 197 1081 147.8 1081C98.7 1081 49.3 1081 24.7 1081L0 1081Z" fill="#3a4657"></path><path d="M0 964L24.7 966.3C49.3 968.7 98.7 973.3 147.8 970.7C197 968 246 958 295.2 953.3C344.3 948.7 393.7 949.3 443 949.3C492.3 949.3 541.7 948.7 590.8 955.8C640 963 689 978 738.2 984.2C787.3 990.3 836.7 987.7 886 989.8C935.3 992 984.7 999 1034 998.7C1083.3 998.3 1132.7 990.7 1181.8 982.2C1231 973.7 1280 964.3 1329.2 967.3C1378.3 970.3 1427.7 985.7 1477 991.2C1526.3 996.7 1575.7 992.3 1624.8 990.8C1674 989.3 1723 990.7 1772.2 992.5C1821.3 994.3 1870.7 996.7 1895.3 997.8L1920 999L1920 1081L1895.3 1081C1870.7 1081 1821.3 1081 1772.2 1081C1723 1081 1674 1081 1624.8 1081C1575.7 1081 1526.3 1081 1477 1081C1427.7 1081 1378.3 1081 1329.2 1081C1280 1081 1231 1081 1181.8 1081C1132.7 1081 1083.3 1081 1034 1081C984.7 1081 935.3 1081 886 1081C836.7 1081 787.3 1081 738.2 1081C689 1081 640 1081 590.8 1081C541.7 1081 492.3 1081 443 1081C393.7 1081 344.3 1081 295.2 1081C246 1081 197 1081 147.8 1081C98.7 1081 49.3 1081 24.7 1081L0 1081Z" fill="#303540"></path><path d="M0 1017L24.7 1020.5C49.3 1024 98.7 1031 147.8 1030.7C197 1030.3 246 1022.7 295.2 1018.7C344.3 1014.7 393.7 1014.3 443 1011.3C492.3 1008.3 541.7 1002.7 590.8 1005C640 1007.3 689 1017.7 738.2 1016.5C787.3 1015.3 836.7 1002.7 886 999.2C935.3 995.7 984.7 1001.3 1034 1001.7C1083.3 1002 1132.7 997 1181.8 1003.3C1231 1009.7 1280 1027.3 1329.2 1029.2C1378.3 1031 1427.7 1017 1477 1013C1526.3 1009 1575.7 1015 1624.8 1020.5C1674 1026 1723 1031 1772.2 1031.2C1821.3 1031.3 1870.7 1026.7 1895.3 1024.3L1920 1022L1920 1081L1895.3 1081C1870.7 1081 1821.3 1081 1772.2 1081C1723 1081 1674 1081 1624.8 1081C1575.7 1081 1526.3 1081 1477 1081C1427.7 1081 1378.3 1081 1329.2 1081C1280 1081 1231 1081 1181.8 1081C1132.7 1081 1083.3 1081 1034 1081C984.7 1081 935.3 1081 886 1081C836.7 1081 787.3 1081 738.2 1081C689 1081 640 1081 590.8 1081C541.7 1081 492.3 1081 443 1081C393.7 1081 344.3 1081 295.2 1081C246 1081 197 1081 147.8 1081C98.7 1081 49.3 1081 24.7 1081L0 1081Z" fill="#24252a"></path></svg>